<svg xmlns="http://www.w3.org/2000/svg" viewBox="0 0 512 512">
  <rect width="512" height="512" rx="104" fill="#2A2A2C"/>
  <!-- zębatka WERTIS -->
  <g fill="#F7A600">
    <g>
      <rect x="232" y="48" width="48" height="72" rx="10"/>
      <rect x="232" y="48" width="48" height="72" rx="10" transform="rotate(30 256 256)"/>
      <rect x="232" y="48" width="48" height="72" rx="10" transform="rotate(60 256 256)"/>
      <rect x="232" y="48" width="48" height="72" rx="10" transform="rotate(90 256 256)"/>
      <rect x="232" y="48" width="48" height="72" rx="10" transform="rotate(120 256 256)"/>
      <rect x="232" y="48" width="48" height="72" rx="10" transform="rotate(150 256 256)"/>
      <rect x="232" y="48" width="48" height="72" rx="10" transform="rotate(180 256 256)"/>
      <rect x="232" y="48" width="48" height="72" rx="10" transform="rotate(210 256 256)"/>
      <rect x="232" y="48" width="48" height="72" rx="10" transform="rotate(240 256 256)"/>
      <rect x="232" y="48" width="48" height="72" rx="10" transform="rotate(270 256 256)"/>
      <rect x="232" y="48" width="48" height="72" rx="10" transform="rotate(300 256 256)"/>
      <rect x="232" y="48" width="48" height="72" rx="10" transform="rotate(330 256 256)"/>
    </g>
    <circle cx="256" cy="256" r="140"/>
  </g>
  <circle cx="256" cy="256" r="58" fill="#F6F5F2"/>
  <circle cx="256" cy="256" r="23" fill="#F7A600"/>
</svg>
