<svg xmlns="http://www.w3.org/2000/svg" viewBox="0 0 360 122" fill="none">
  <!-- zębatka wpisana w górę napisu (rysowana pod tekstem, wychodzi zza liter) -->
  <g>
    <g fill="#F7A600">
      <g>
        <rect x="201" y="4" width="8" height="12" rx="2"/>
        <rect x="201" y="4" width="8" height="12" rx="2" transform="rotate(30 205 32)"/>
        <rect x="201" y="4" width="8" height="12" rx="2" transform="rotate(60 205 32)"/>
        <rect x="201" y="4" width="8" height="12" rx="2" transform="rotate(90 205 32)"/>
        <rect x="201" y="4" width="8" height="12" rx="2" transform="rotate(120 205 32)"/>
        <rect x="201" y="4" width="8" height="12" rx="2" transform="rotate(150 205 32)"/>
        <rect x="201" y="4" width="8" height="12" rx="2" transform="rotate(180 205 32)"/>
        <rect x="201" y="4" width="8" height="12" rx="2" transform="rotate(210 205 32)"/>
        <rect x="201" y="4" width="8" height="12" rx="2" transform="rotate(240 205 32)"/>
        <rect x="201" y="4" width="8" height="12" rx="2" transform="rotate(270 205 32)"/>
        <rect x="201" y="4" width="8" height="12" rx="2" transform="rotate(300 205 32)"/>
        <rect x="201" y="4" width="8" height="12" rx="2" transform="rotate(330 205 32)"/>
      </g>
      <circle cx="205" cy="32" r="19"/>
    </g>
    <circle cx="205" cy="32" r="8" fill="#F6F5F2"/>
    <circle cx="205" cy="32" r="3.2" fill="#F7A600"/>
  </g>

  <!-- wordmark -->
  <text x="180" y="78" text-anchor="middle" font-family="'Barlow Condensed',sans-serif"
        font-weight="800" font-size="58" letter-spacing="1.5" font-style="italic" fill="#2A2A2C">WERTIS</text>

  <!-- tagline z pomarańczowymi kreskami po bokach -->
  <g>
    <rect x="72" y="99" width="26" height="3.5" rx="1.75" fill="#F7A600"/>
    <text x="180" y="108" text-anchor="middle" font-family="'Barlow',sans-serif"
          font-weight="700" font-size="14" letter-spacing="3" fill="#2A2A2C">SKLEP Z CZĘŚCIAMI</text>
    <rect x="262" y="99" width="26" height="3.5" rx="1.75" fill="#F7A600"/>
  </g>
</svg>
