<svg xmlns="http://www.w3.org/2000/svg" viewBox="0 0 210 52" fill="none">
  <!-- zębatka wpisana w górę napisu (rysowana pod tekstem) -->
  <g>
    <g fill="#F7A600">
      <g>
        <rect x="121.5" y="2" width="7" height="10" rx="2"/>
        <rect x="121.5" y="2" width="7" height="10" rx="2" transform="rotate(30 125 18)"/>
        <rect x="121.5" y="2" width="7" height="10" rx="2" transform="rotate(60 125 18)"/>
        <rect x="121.5" y="2" width="7" height="10" rx="2" transform="rotate(90 125 18)"/>
        <rect x="121.5" y="2" width="7" height="10" rx="2" transform="rotate(120 125 18)"/>
        <rect x="121.5" y="2" width="7" height="10" rx="2" transform="rotate(150 125 18)"/>
        <rect x="121.5" y="2" width="7" height="10" rx="2" transform="rotate(180 125 18)"/>
        <rect x="121.5" y="2" width="7" height="10" rx="2" transform="rotate(210 125 18)"/>
        <rect x="121.5" y="2" width="7" height="10" rx="2" transform="rotate(240 125 18)"/>
        <rect x="121.5" y="2" width="7" height="10" rx="2" transform="rotate(270 125 18)"/>
        <rect x="121.5" y="2" width="7" height="10" rx="2" transform="rotate(300 125 18)"/>
        <rect x="121.5" y="2" width="7" height="10" rx="2" transform="rotate(330 125 18)"/>
      </g>
      <circle cx="125" cy="18" r="11"/>
    </g>
    <circle cx="125" cy="18" r="4.6" fill="#FFFFFF"/>
    <circle cx="125" cy="18" r="1.9" fill="#F7A600"/>
  </g>
  <text x="105" y="44" text-anchor="middle" font-family="'Barlow Condensed',sans-serif"
        font-weight="800" font-size="36" letter-spacing="1" font-style="italic" fill="#2A2A2C">WERTIS</text>
</svg>
